{
  "accessors": [
    {
      "bufferView": 2,
      "componentType": 5126,
      "count": 1640,
      "max": [
        10.286529541015625,
        2.742919921875,
        7.515260219573975
      ],
      "min": [
        -6.780149936676025,
        -2.742919921875,
        -6.527820110321045
      ],
      "type": "VEC3"
    },
    {
      "bufferView": 2,
      "byteOffset": 19680,
      "componentType": 5126,
      "count": 1640,
      "max": [
        0.9998686909675598,
        1.0,
        0.9089798927307129
      ],
      "min": [
        -0.9969893097877502,
        -0.9987833499908447,
        -1.0
      ],
      "type": "VEC3"
    },
    {
      "bufferView": 1,
      "componentType": 5126,
      "count": 1640,
      "max": [
        0.8281700015068054,
        0.9805499911308289
      ],
      "min": [
        0.25808000564575195,
        0.48688000440597534
      ],
      "type": "VEC2"
    },
    {
      "bufferView": 0,
      "componentType": 5125,
      "count": 2451,
      "type": "SCALAR"
    },
    {
      "bufferView": 2,
      "byteOffset": 39360,
      "componentType": 5126,
      "count": 84,
      "max": [
        0.2901099920272827,
        0.7392500042915344,
        3.295650005340576
      ],
      "min": [
        -0.9202700257301331,
        -0.7392500042915344,
        -0.45069000124931335
      ],
      "type": "VEC3"
    },
    {
      "bufferView": 2,
      "byteOffset": 40368,
      "componentType": 5126,
      "count": 84,
      "max": [
        0.9999999403953552,
        0.9821078777313232,
        0.9003052711486816
      ],
      "min": [
        -0.9985349178314209,
        -0.9821078777313232,
        -0.9611132144927979
      ],
      "type": "VEC3"
    },
    {
      "bufferView": 1,
      "byteOffset": 13120,
      "componentType": 5126,
      "count": 84,
      "max": [
        0.32899001240730286,
        0.6248300075531006
      ],
      "min": [
        0.26965001225471497,
        0.49549999833106995
      ],
      "type": "VEC2"
    },
    {
      "bufferView": 0,
      "byteOffset": 9804,
      "componentType": 5125,
      "count": 372,
      "type": "SCALAR"
    }
  ],
  "asset": {
    "extras": {
      "author": "Harold.Llanos (https://sketchfab.com/Harold.Llanos)",
      "license": "CC-BY-4.0 (http://creativecommons.org/licenses/by/4.0/)",
      "source": "https://sketchfab.com/3d-models/perro-lowpoly-lowpoly-dog-a5e68d1f73d74a0f959150be8d0ca31c",
      "title": "Perro Lowpoly - lowpoly dog"
    },
    "generator": "Sketchfab-12.65.0",
    "version": "2.0"
  },
  "bufferViews": [
    {
      "buffer": 0,
      "byteLength": 11292,
      "name": "floatBufferViews",
      "target": 34963
    },
    {
      "buffer": 0,
      "byteLength": 13792,
      "byteOffset": 11292,
      "byteStride": 8,
      "name": "floatBufferViews",
      "target": 34962
    },
    {
      "buffer": 0,
      "byteLength": 41376,
      "byteOffset": 25084,
      "byteStride": 12,
      "name": "floatBufferViews",
      "target": 34962
    }
  ],
  "buffers": [
    {
      "byteLength": 66460,
      "uri": "scene.bin"
    }
  ],
  "images": [
    {
      "uri": "textures/Dog1/Root_baseColor.png"
    }
  ],
  "materials": [
    {
      "doubleSided": true,
      "name": "Root",
      "pbrMetallicRoughness": {
        "baseColorTexture": {
          "index": 0
        },
        "metallicFactor": 0.0,
        "roughnessFactor": 0.8675685975609756
      }
    }
  ],
  "meshes": [
    {
      "name": "Cylinder_0",
      "primitives": [
        {
          "attributes": {
            "NORMAL": 1,
            "POSITION": 0,
            "TEXCOORD_0": 2
          },
          "indices": 3,
          "material": 0,
          "mode": 4
        }
      ]
    },
    {
      "name": "Icosphere_0",
      "primitives": [
        {
          "attributes": {
            "NORMAL": 5,
            "POSITION": 4,
            "TEXCOORD_0": 6
          },
          "indices": 7,
          "material": 0,
          "mode": 4
        }
      ]
    }
  ],
  "nodes": [
    {
      "children": [
        1
      ],
      "matrix": [
        1.0,
        0.0,
        0.0,
        0.0,
        0.0,
        2.220446049250313e-16,
        -1.0,
        0.0,
        0.0,
        1.0,
        2.220446049250313e-16,
        0.0,
        0.0,
        0.0,
        0.0,
        1.0
      ],
      "name": "Sketchfab_model"
    },
    {
      "children": [
        2,
        4,
        6
      ],
      "name": "Root"
    },
    {
      "children": [
        3
      ],
      "matrix": [
        -0.29086000000000006,
        0.9551700000000001,
        -0.05519000000000001,
        0.0,
        -0.7711,
        -0.19988000000000003,
        0.6045200000000001,
        0.0,
        0.5663900000000001,
        0.21839000000000003,
        0.7946700000000001,
        0.0,
        4.076250000000001,
        1.00545,
        5.903860000000001,
        1.0
      ],
      "name": "Lamp"
    },
    {
      "name": "Lamp"
    },
    {
      "children": [
        5
      ],
      "matrix": [
        0.31453000000000003,
        0.0,
        0.0,
        0.0,
        0.0,
        0.31453000000000003,
        0.0,
        0.0,
        0.0,
        0.0,
        0.31453000000000003,
        0.0,
        -1.31348,
        -0.0,
        0.26434,
        1.0
      ],
      "name": "Cylinder"
    },
    {
      "mesh": 0,
      "name": "Cylinder_0"
    },
    {
      "children": [
        7
      ],
      "matrix": [
        0.46467,
        -0.0,
        0.024350000000000007,
        0.0,
        0.0,
        0.46530000000000005,
        0.0,
        0.0,
        -0.024350000000000007,
        0.0,
        0.46467,
        0.0,
        -3.36977,
        0.0,
        -0.47049,
        1.0
      ],
      "name": "Icosphere"
    },
    {
      "mesh": 1,
      "name": "Icosphere_0"
    }
  ],
  "samplers": [
    {
      "magFilter": 9729,
      "minFilter": 9987,
      "wrapS": 10497,
      "wrapT": 10497
    }
  ],
  "scene": 0,
  "scenes": [
    {
      "name": "Sketchfab_Scene",
      "nodes": [
        0
      ]
    }
  ],
  "textures": [
    {
      "sampler": 0,
      "source": 0
    }
  ]
}
